<svg width="256" height="256" viewBox="0 0 256 256" fill="none" xmlns="http://www.w3.org/2000/svg">
<rect width="256" height="256" rx="64" fill="white"/>
<path fill-rule="evenodd" clip-rule="evenodd" d="M169 107.003L212 82.0036L169 57.002V107.003Z" fill="#DBF1C1"/>
<path fill-rule="evenodd" clip-rule="evenodd" d="M82.998 157.001L125.998 182.002L82.998 207V157.001Z" fill="#53A626"/>
<path fill-rule="evenodd" clip-rule="evenodd" d="M125.998 132L82.998 157L125.998 182V132Z" fill="#1F4F22"/>
<path fill-rule="evenodd" clip-rule="evenodd" d="M82.998 206.999L125.998 231.997V181.999L82.998 206.999Z" fill="#1F4F22"/>
<path fill-rule="evenodd" clip-rule="evenodd" d="M40 182.001V182.002L82.9979 207V157.001L40 182.001Z" fill="#1F4F22"/>
<path fill-rule="evenodd" clip-rule="evenodd" d="M169 157L212 182V132L169 157Z" fill="#B2D530"/>
<path fill-rule="evenodd" clip-rule="evenodd" d="M126 82L169 107L126 132V82Z" fill="#B2D530"/>
<path fill-rule="evenodd" clip-rule="evenodd" d="M40 131.998V132L82.9979 157V107L40 131.998Z" fill="#B2D530"/>
<path fill-rule="evenodd" clip-rule="evenodd" d="M126 232L168.998 207.002L126 182V232Z" fill="#53A626"/>
<path fill-rule="evenodd" clip-rule="evenodd" d="M169 207L212 182L169 157V207Z" fill="#1F4F22"/>
<path fill-rule="evenodd" clip-rule="evenodd" d="M125.998 32L82.998 56.9981L125.998 81.9997V32Z" fill="#DBF1C1"/>
<path fill-rule="evenodd" clip-rule="evenodd" d="M169 107.002L126 132.002L169 157.002V107.002Z" fill="#DBF1C1"/>
<path fill-rule="evenodd" clip-rule="evenodd" d="M169 157L126 182.002L169 207V157Z" fill="#B2D530"/>
</svg>
