<svg width="256" height="256" viewBox="0 0 256 256" fill="none" xmlns="http://www.w3.org/2000/svg">
<rect width="256" height="256" fill="black"/>
<path fill-rule="evenodd" clip-rule="evenodd" d="M181.074 126.57C187.458 127.113 191.952 128.476 196.034 131.898C196.976 132.688 198.262 133.974 199.052 134.916C204.74 141.702 204.74 149.626 204.74 165.475C204.74 181.324 204.74 189.248 199.052 196.034C198.262 196.976 196.976 198.262 196.034 199.052C189.248 204.74 181.324 204.74 165.475 204.74C149.626 204.74 141.702 204.74 134.916 199.052C133.974 198.262 132.688 196.976 131.898 196.034C128.476 191.952 127.113 187.458 126.57 181.074C120.535 194.999 106.668 204.74 90.5251 204.74C68.8395 204.74 51.2599 187.16 51.2599 165.475C51.2599 149.332 61.0012 135.465 74.9261 129.43C68.5425 128.887 64.0482 127.524 59.9659 124.102C59.0243 123.312 57.7378 122.026 56.9484 121.084C51.2599 114.298 51.2599 106.374 51.2599 90.5251C51.2599 74.6763 51.2599 66.7519 56.9484 59.9659C57.7378 59.0243 59.0243 57.7378 59.9659 56.9484C66.7519 51.2599 74.6763 51.2599 90.5251 51.2599C106.374 51.2599 114.298 51.2599 121.084 56.9484C122.026 57.7378 123.312 59.0243 124.102 59.9659C127.524 64.0482 128.887 68.5424 129.43 74.926C135.465 61.0012 149.332 51.2599 165.475 51.2599C187.16 51.2599 204.74 68.8395 204.74 90.5251C204.74 106.668 194.999 120.535 181.074 126.57ZM129.43 106.124C128.887 112.508 127.524 117.002 124.102 121.084C123.312 122.026 122.026 123.312 121.084 124.102C117.002 127.524 112.508 128.887 106.124 129.43C115.268 133.393 122.607 140.732 126.57 149.876C127.113 143.492 128.476 138.998 131.898 134.916C132.688 133.974 133.974 132.688 134.916 131.898C138.998 128.476 143.492 127.113 149.876 126.57C140.732 122.607 133.393 115.268 129.43 106.124Z" fill="white"/>
</svg>
