<svg xmlns="http://www.w3.org/2000/svg" x="0px" y="0px" width="512" height="512"
	 viewBox="0 0 512 512">
<style type="text/css">
	.st0{fill:#72BF00;}
</style>
	<circle class="st0" cx="256" cy="23.2" r="20.6"/>

		<ellipse transform="matrix(0.9733 -0.2297 0.2297 0.9733 -105.5259 71.8867)" class="st0" cx="256" cy="489.2" rx="20.6" ry="20.6"/>

		<ellipse transform="matrix(0.7071 -0.7071 0.7071 0.7071 58.364 324.4909)" class="st0" cx="420.9" cy="91.8" rx="20.6" ry="20.6"/>
	<circle class="st0" cx="420.8" cy="420.9" r="20.6"/>

		<ellipse transform="matrix(0.7071 -0.7071 0.7071 0.7071 -270.8656 187.7879)" class="st0" cx="91.2" cy="420.9" rx="20.6" ry="20.6"/>
	<circle class="st0" cx="22.7" cy="256.6" r="20.6"/>

		<ellipse transform="matrix(0.7071 -0.7071 0.7071 0.7071 -38.0975 421.1344)" class="st0" cx="489.3" cy="256.6" rx="20.6" ry="20.6"/>
	<circle class="st0" cx="91.3" cy="91.2" r="20.6"/>
	<path class="st0" d="M256,71.1c-11.4,0-20.6,9.2-20.6,20.6v81.8l0,0c0,0,0,0.3,0,0.6c0,11.4,9.2,20.6,20.6,20.6
		c11.4,0,20.6-9.2,20.6-20.6c0-0.2,0-0.3,0-0.6l0,0V91.8C276.6,80.4,267.4,71.2,256,71.1L256,71.1z"/>
	<path class="st0" d="M256,318.4c-11.4,0-20.6,9.2-20.6,20.6v81.8l0,0c0,0,0,0.3,0,0.6c0,11.4,9.2,20.6,20.6,20.6
		c11.4,0,20.6-9.2,20.6-20.6c0-0.2,0-0.3,0-0.6l0,0V339C276.6,327.6,267.4,318.4,256,318.4z"/>
	<path class="st0" d="M214.9,236h-123c0,0-0.3,0-0.6,0c-11.4,0-20.6,9.2-20.6,20.6c0,11.4,9.2,20.6,20.6,20.6c0.2,0,0.3,0,0.6,0h123
		c11.4,0,20.6-9.2,20.6-20.6C235.5,245.2,226.2,236,214.9,236z"/>
	<path class="st0" d="M420.9,277.2c11.4,0,20.6-9.2,20.6-20.6s-9.2-20.6-20.6-20.6h-123c0,0-0.3,0-0.6,0c-11.4,0-20.6,9.2-20.6,20.6
		s9.2,20.6,20.6,20.6c0.2,0,0.3,0,0.6,0H420.9z"/>
	<path class="st0" d="M338.5,194.8c11.4,0,20.6-9.2,20.6-20.6c0-0.2,0-0.3,0-0.6l0,0V38c0-11.4-9.2-20.6-20.6-20.6
		s-20.6,9.2-20.6,20.6v135.7l0,0c0,0,0,0.3,0,0.6C317.9,185.6,327.1,194.8,338.5,194.8z"/>
	<path class="st0" d="M173.1,318.4c-11.4,0-20.6,9.2-20.6,20.6v135.7l0,0c0,0,0,0.3,0,0.6c0,11.4,9.2,20.6,20.6,20.6
		c11.4,0,20.6-9.2,20.6-20.6c0-0.2,0-0.3,0-0.6l0,0V339C193.7,327.6,184.4,318.4,173.1,318.4z"/>
	<path class="st0" d="M37.4,194.2h135.7c0,0,0.3,0,0.6,0c11.4,0,20.6-9.2,20.6-20.6S185,153,173.6,153c-0.2,0-0.3,0-0.6,0H37.4
		c-11.4,0-20.6,9.2-20.6,20.6S26.1,194.2,37.4,194.2z"/>
	<path class="st0" d="M474.6,318.4c0,0-0.3,0-0.6,0H338.4c-11.4,0-20.6,9.2-20.6,20.6s9.2,20.6,20.6,20.6h135.7c0,0,0.3,0,0.6,0
		c11.4,0,20.6-9.2,20.6-20.6S486,318.4,474.6,318.4z"/>
	<path class="st0" d="M173.6,112.4c11.4,0,20.6-9.2,20.6-20.6c0-0.2,0-0.3,0-0.6l0,0V38c0-11.4-9.2-20.6-20.6-20.6
		c-11.4,0-20.6,9.2-20.6,20.6v53.3l0,0c0,0,0,0.3,0,0.6C153,103.2,162.3,112.4,173.6,112.4z"/>
	<path class="st0" d="M91.2,359.6c11.4,0,20.6-9.2,20.6-20.6s-9.2-20.6-20.6-20.6H37.9c0,0-0.3,0-0.6,0c-11.4,0-20.6,9.2-20.6,20.6
		s9.2,20.6,20.6,20.6c0.2,0,0.3,0,0.6,0C37.9,359.6,91.2,359.6,91.2,359.6z"/>
	<path class="st0" d="M420.9,194.8c0,0,0.3,0,0.6,0h53.3c11.4,0,20.6-9.2,20.6-20.6c0-11.4-9.2-20.6-20.6-20.6h-53.3
		c0,0-0.3,0-0.6,0c-11.4,0-20.6,9.2-20.6,20.6C400.3,185.6,409.5,194.8,420.9,194.8z"/>
	<path class="st0" d="M338.5,400.2c-11.4,0-20.6,9.2-20.6,20.6c0,0.2,0,0.3,0,0.6l0,0v53.3c0,11.4,9.2,20.6,20.6,20.6
		s20.6-9.2,20.6-20.6v-53.3l0,0c0,0,0-0.3,0-0.6C359.1,409.4,349.8,400.2,338.5,400.2z"/>
</svg>
