<?xml version="1.0" encoding="UTF-8"?><svg id="Layer_1" xmlns="http://www.w3.org/2000/svg" viewBox="0 0 16 16"><defs><style>.cls-1{fill:#1483f3;}</style></defs><path class="cls-1" d="m3.55,7.46c0,.05.02.1.06.13.03.03.08.05.13.05s.09-.02.12-.05l2.83-2.6s.1-.06.16-.06h1.46c.11,0,.21.06.24.16.03.08,0,.17-.06.24l-2.09,2.1c-.11.11-.2.23-.18.39,0,.07.07.17.1.23.78,1.35,1.39,2.14,2.43,2.4.43.08.83.06,1.19-.06.15-.05.28-.12.4-.21.28-.2.69-.54,1.24-1.12.31-.33.62-.83.74-1.08.1-.21.16-.42.16-.63,0-.3-.1-.53-.31-.7-.2-.16-.51-.24-.9-.24-.33,0-.63.06-.89.19-.21.1-.39.24-.55.42-.04.05-.1.07-.16.07-.04,0-.08-.01-.11-.03l-.9-.58c-.05-.03-.08-.08-.09-.14,0-.06,0-.12.04-.16.27-.34.63-.62,1.07-.83.51-.24,1.1-.37,1.76-.37.55,0,1.04.09,1.46.27.41.18.74.44.97.77.23.33.35.72.35,1.17,0,.4-.09.79-.26,1.14-.17.35-.38.69-.87,1.22l-.63.75s-.03.08-.02.1c.02.06.08.1.17.1h3.2c.11,0,.19-.09.19-.19V.67C16,.3,15.7,0,15.33,0H3.74C3.63,0,3.55.09,3.55.19v7.27Z"/><path class="cls-1" d="m9.13,12c-.74,0-1.62-.22-2.42-.87-.15-.12-.37-.35-.49-.5l-1.3-1.61s-.09-.07-.14-.07c-.05,0-.09.02-.12.05l-1.04.99s-.06.09-.06.14v1.62c0,.14-.11.25-.25.25h-1.23c-.14,0-.25-.11-.25-.25V.19C1.82.09,1.74,0,1.63,0h-.96C.3,0,0,.3,0,.67v14.65c0,.37.3.67.67.67h14.65c.37,0,.67-.3.67-.67v-3.13c0-.11-.09-.19-.19-.19h-6.68Z"/></svg>