<svg xmlns="http://www.w3.org/2000/svg" width="64" height="64" fill="none"><rect width="64" height="64" fill="#141414" rx="17.674"/><path fill="#fff" d="M38.894 25.484a13.2 13.2 0 0 0-2.039-1.31c-1.822-.949-3.802-1.423-5.94-1.423-3.01 0-5.684.652-8.02 1.956-2.338 1.305-4.16 3.133-5.466 5.484-1.307 2.352-1.96 5.05-1.96 8.093 0 2.806.702 5.385 2.108 7.736 1.406 2.352 3.307 4.23 5.703 5.632 2.396 1.403 5.1 2.105 8.11 2.105 3.05 0 5.782-.672 8.198-2.016 2.416-1.343 4.317-3.18 5.703-5.513 1.386-2.332 2.08-4.98 2.08-7.944V10.989a.925.925 0 0 0-.925-.925h-6.589a.925.925 0 0 0-.925.922l-.038 14.498Zm-.94 16.535a7.59 7.59 0 0 1-2.673 2.756c-1.129.692-2.426 1.038-3.891 1.038-1.426 0-2.703-.346-3.832-1.038a7.589 7.589 0 0 1-2.673-2.756 7.41 7.41 0 0 1-.98-3.735c0-1.383.326-2.658.98-3.824a7.31 7.31 0 0 1 2.673-2.757c1.129-.671 2.406-1.008 3.832-1.008 1.465 0 2.762.337 3.891 1.008a7.31 7.31 0 0 1 2.674 2.757c.653 1.166.98 2.44.98 3.824a7.417 7.417 0 0 1-.98 3.735Z"/></svg>