<svg xmlns="http://www.w3.org/2000/svg" viewBox="0 0 124 104" fill="none">
  <path d="M76.6342 0C77.9932 29.6207 87.4761 63.1665 124 65.4823V103.134C95.2294 103.134 65.9159 84.0494 63.7221 54.8467H60.2779C58.084 84.0457 28.7706 103.131 0 103.131V65.4823C36.5276 63.1665 46.0068 29.6207 47.362 0H76.6342ZM61.4235 77.6902H61.386C61.2288 77.705 61.1052 77.8234 61.0865 77.975C59.5815 85.2628 55.2762 89.2507 47.1074 90.5232C46.9614 90.5343 46.8379 90.6342 46.8042 90.7748L46.7967 90.8007V90.8932L46.8079 90.9228C46.8454 91.0559 46.9652 91.1521 47.1074 91.1632C55.2762 92.4358 59.5815 96.4237 61.0865 103.711C61.094 103.782 61.1277 103.852 61.1839 103.908C61.24 103.959 61.3149 103.993 61.3935 104H61.4384C61.6069 103.996 61.7492 103.874 61.7679 103.715C63.2766 96.4237 67.5744 92.4358 75.7432 91.1632C75.9155 91.1484 76.0502 91.0153 76.0577 90.8525V90.8229C76.0577 90.8118 76.0577 90.8007 76.0577 90.7896L76.0502 90.7637C76.0128 90.6305 75.893 90.5343 75.747 90.5232C67.5782 89.247 63.2766 85.2628 61.7679 77.975C61.7492 77.8234 61.6219 77.705 61.4609 77.6902L61.4347 77.6865L61.4235 77.6902Z" fill="#000000"/>
</svg>
