<svg xmlns="http://www.w3.org/2000/svg" width="64" height="64" fill="none"><path fill="#256CF7" d="M63.766 31.652c1.022 6.176-4.396 9.658-9.882 10.059C50.392 48.82 38.09 53.62 27.41 48.45c-4.565.684-7.067-.447-8.999-2.603 3.903-4.973 15.718-13.924 30.15-9.304 7.704 2.467 9.7-3.329 7.77-5.502-7.27-8.177-23.68-.816-24.274-.203 6.448-9.768 29.509-12.509 31.708.814ZM41.664 20.426c.04-.014-5.24-1.86-12.627 1.3a9.156 9.156 0 0 1-.873-.373c7.104-4.674 13.332-6.658 18.656-5.886-3.224-3.676-18.716-6.378-27.592 2.43-10.972-2.14-18.647 7.07-18.21 15.478.436 8.41 9.7 13.645 14.978 12.227.127-.017.255-.017.382 0 1.17-5.558 5.946-18.488 25.286-25.176Z"/></svg>